<svg xmlns="http://www.w3.org/2000/svg" viewBox="0 0 138 102" width="138" height="102">
	<style>
		tspan { white-space:pre }
		.shp0 { fill: #37c3b7 } 
	</style>
	<path id="Shape 1007" class="shp0" d="M127.78 47.85L127.78 75.1C127.78 79.19 124.43 82.51 120.29 82.51L113.75 82.51C109.15 76.43 100.45 75.18 94.3 79.72C93.23 80.51 92.28 81.45 91.48 82.51L60.64 82.51C56.5 82.51 53.15 79.19 53.15 75.1L53.15 22.61C53.15 18.52 56.5 15.2 60.64 15.2L85.95 15.2C81.36 30.16 89.9 45.96 105.02 50.5C112.65 52.8 120.9 51.83 127.78 47.85ZM40.99 90.73C40.99 88.88 40.62 87.05 39.88 85.35L89.83 85.35C89.1 87.05 88.72 88.88 88.72 90.73L40.99 90.73ZM113 90.73C113 85.05 108.35 80.45 102.61 80.45C96.88 80.45 92.23 85.05 92.23 90.73C92.23 96.4 96.88 101 102.61 101C108.35 101 113 96.4 113 90.73L113 90.73ZM37.49 90.73C37.49 85.05 32.84 80.45 27.1 80.45C21.37 80.45 16.72 85.05 16.72 90.73C16.72 96.4 21.37 101 27.1 101C32.84 101 37.49 96.4 37.49 90.73L37.49 90.73ZM15.97 82.51L8.47 82.51C4.33 82.51 0.98 79.19 0.98 75.1L0.98 56.67C0.98 54.45 2.14 52.39 4.06 51.23L8.63 48.45L18.17 29.28C19.25 27.09 21.5 25.71 23.96 25.71L43.09 25.71C47.23 25.71 50.59 29.03 50.59 33.12L50.59 75.1C50.59 79.19 47.23 82.51 43.09 82.51L38.23 82.51C33.64 76.43 24.93 75.18 18.79 79.72C17.72 80.51 16.77 81.45 15.97 82.51ZM22.26 31.67L12.52 51.26L12.52 62.3L17.7 62.3L23.45 50.76L42.65 50.76L42.65 31.67L22.26 31.67M137.01 23.42C137.01 36.35 126.41 46.84 113.33 46.84C100.26 46.84 89.65 36.36 89.65 23.42C89.65 10.49 100.26 0 113.33 0C126.41 0 137.01 10.49 137.01 23.42L137.01 23.42ZM98.49 23.94L105.83 33.17L128.87 18.57L126.76 15.31L106.71 28.02L101.56 21.55L98.49 23.94Z" />
</svg>