<svg xmlns="http://www.w3.org/2000/svg" viewBox="0 0 130 114" width="130" height="114">
	<style>
		tspan { white-space:pre }
		.shp0 { fill: #37c3b7 } 
	</style>
	<path id="Shape 1008" class="shp0" d="M48.96 24.14C50.98 22.13 54.07 21.67 56.55 22.9L71.43 8.08L65.08 1.91C63.84 0.67 61.98 0.67 60.74 1.91L33.62 28.92L47.1 28.92C47.1 27.23 47.72 25.53 48.96 24.14ZM55 28.92L68.48 28.92C68.48 27.23 69.1 25.53 70.34 24.14C72.67 21.82 76.08 21.67 78.56 23.37C78.87 23.52 79.18 23.83 79.49 24.14C80.72 25.37 81.5 27.23 81.34 28.92L94.36 28.92L101.8 21.51C103.04 20.28 103.04 18.43 101.8 17.19L86.46 1.91C85.22 0.67 83.36 0.67 82.12 1.91L73.6 10.4L58.88 25.06L55 28.92ZM125.66 61.03L105.52 61.03C103.19 61.03 101.33 62.89 101.33 65.2L101.33 80.95C101.33 83.26 103.19 85.11 105.52 85.11L125.81 85.11C128.14 85.11 130 83.26 130 80.95L130 65.05C129.84 62.89 127.98 61.03 125.66 61.03ZM119 76.32C118.07 77.24 116.83 77.7 115.59 77.7C114.35 77.7 113.11 77.24 112.18 76.32C111.25 75.39 110.78 74.15 110.78 72.92C110.78 71.68 111.25 70.45 112.18 69.52C114.04 67.67 117.29 67.67 119 69.52C119.93 70.45 120.39 71.68 120.39 72.92C120.39 74.31 119.93 75.54 119 76.32ZM98.23 80.79L98.23 65.05C98.23 61.03 101.49 57.79 105.52 57.79L115.74 57.79L115.74 41.74C115.74 36.33 111.4 32.17 106.14 32.17L9.61 32.17C4.34 32.17 0 36.49 0 41.74L0 104.41C0 109.81 4.34 113.98 9.61 113.98L105.98 113.98C111.25 113.98 115.59 109.66 115.59 104.41L115.59 88.05L105.36 88.05C101.49 88.05 98.23 84.81 98.23 80.79ZM25.41 104.1L13.02 104.1C11.31 104.1 9.92 102.71 9.92 101.01L9.92 88.67C9.92 86.97 11.31 85.58 13.02 85.58C14.72 85.58 16.11 86.97 16.11 88.67L16.11 97.93L25.41 97.93C27.11 97.93 28.51 99.32 28.51 101.01C28.51 102.71 27.11 104.1 25.41 104.1Z" />
</svg>