<svg xmlns="http://www.w3.org/2000/svg" viewBox="0 0 55 51" width="55" height="51">
	<style>
		tspan { white-space:pre }
		.shp0 { fill: #37c3b7 } 
	</style>
	<path id="Shape 693" class="shp0" d="M22.1 38.29L10.38 50L7.37 43.4L1 40.64L11.16 30.49C13.87 34.25 17.71 36.97 22.1 38.29ZM55 40.64L48.63 43.4L45.62 50L33.97 38.36C38.41 37.09 42.28 34.4 45.02 30.67L55 40.64ZM28 0.01C17.83 0.01 9.58 8.24 9.58 18.41C9.58 22.27 10.78 25.86 12.82 28.83C15.42 32.6 19.4 35.35 24.03 36.36C25.31 36.65 26.63 36.8 28 36.8C29.37 36.8 30.69 36.65 31.97 36.36C36.6 35.35 40.58 32.6 43.18 28.83C45.22 25.86 46.42 22.27 46.42 18.41C46.42 8.24 38.17 0.01 28 0.01ZM35.34 29.69L28 25.83L20.66 29.69L22.06 21.52L16.12 15.74L24.33 14.55L28 7.12L31.67 14.55L39.88 15.74L33.94 21.52L35.34 29.69Z" />
</svg>